<svg viewBox="0 0 240 250" xmlns="http://www.w3.org/2000/svg">
  <!-- Конфетти / звёзды -->
  <text x="10" y="40" font-size="22" fill="#4CAF50">★</text>
  <text x="195" y="35" font-size="18" fill="#D4AF37">★</text>
  <text x="5" y="110" font-size="14" fill="#4CAF50">✦</text>
  <text x="210" y="100" font-size="16" fill="#4CAF50">★</text>
  <text x="100" y="12" font-size="20" fill="#D4AF37">★</text>
  <text x="55" y="22" font-size="12" fill="#81C784">✦</text>
  <text x="160" y="20" font-size="12" fill="#4CAF50">✦</text>
  <!-- Хвост — поднят вверх победно -->
  <path d="M150 175 Q190 135 182 90 Q180 72 165 78" fill="none" stroke="#81C784" stroke-width="12" stroke-linecap="round"/>
  <!-- Тело -->
  <ellipse cx="108" cy="172" rx="55" ry="45" fill="#C8E6C9"/>
  <!-- Грудь -->
  <ellipse cx="108" cy="182" rx="32" ry="28" fill="#FFFFFF"/>
  <!-- Лапы вверх — победная поза -->
  <path d="M72 160 Q38 118 28 95" fill="none" stroke="#C8E6C9" stroke-width="16" stroke-linecap="round"/>
  <ellipse cx="25" cy="91" rx="15" ry="13" fill="#C8E6C9"/>
  <path d="M148 160 Q182 118 195 95" fill="none" stroke="#C8E6C9" stroke-width="16" stroke-linecap="round"/>
  <ellipse cx="198" cy="91" rx="15" ry="13" fill="#C8E6C9"/>
  <!-- Голова -->
  <ellipse cx="108" cy="108" rx="52" ry="48" fill="#C8E6C9"/>
  <!-- Уши -->
  <polygon points="66,74 56,44 86,64" fill="#C8E6C9"/>
  <polygon points="68,70 62,52 80,66" fill="#81C784"/>
  <polygon points="150,74 160,44 130,64" fill="#C8E6C9"/>
  <polygon points="148,70 154,52 136,66" fill="#81C784"/>
  <!-- Тюрбан -->
  <ellipse cx="108" cy="75" rx="48" ry="22" fill="#81C784"/>
  <path d="M64 75 Q108 55 152 75" fill="none" stroke="#4CAF50" stroke-width="4"/>
  <path d="M68 80 Q108 62 148 80" fill="none" stroke="#4CAF50" stroke-width="3"/>
  <ellipse cx="108" cy="58" rx="12" ry="10" fill="#81C784"/>
  <path d="M64 77 Q108 60 152 77" fill="none" stroke="#D4AF37" stroke-width="2.5" opacity="0.8"/>
  <!-- Лицо -->
  <ellipse cx="108" cy="110" rx="38" ry="34" fill="#C8E6C9"/>
  <ellipse cx="108" cy="120" rx="24" ry="20" fill="#FFFFFF"/>
  <!-- Глаза — сияющие счастливые дуги -->
  <path d="M86 106 Q93 97 100 106" fill="none" stroke="#2E2E2E" stroke-width="4" stroke-linecap="round"/>
  <path d="M116 106 Q123 97 130 106" fill="none" stroke="#2E2E2E" stroke-width="4" stroke-linecap="round"/>
  <!-- Блики сияния -->
  <line x1="84" y1="100" x2="80" y2="95" stroke="#D4AF37" stroke-width="2"/>
  <line x1="82" y1="103" x2="76" y2="102" stroke="#D4AF37" stroke-width="2"/>
  <line x1="132" y1="100" x2="136" y2="95" stroke="#D4AF37" stroke-width="2"/>
  <line x1="134" y1="103" x2="140" y2="102" stroke="#D4AF37" stroke-width="2"/>
  <!-- Румянец -->
  <ellipse cx="85" cy="116" rx="10" ry="7" fill="#FFB6C1" opacity="0.6"/>
  <ellipse cx="131" cy="116" rx="10" ry="7" fill="#FFB6C1" opacity="0.6"/>
  <!-- Нос -->
  <ellipse cx="108" cy="121" rx="5" ry="4" fill="#FFB6C1"/>
  <!-- Рот — огромная улыбка -->
  <path d="M94 127 Q108 140 122 127" fill="none" stroke="#2E2E2E" stroke-width="3" stroke-linecap="round"/>
  <!-- Усы -->
  <line x1="86" y1="119" x2="103" y2="122" stroke="#81C784" stroke-width="1.5" stroke-linecap="round"/>
  <line x1="84" y1="124" x2="102" y2="124" stroke="#81C784" stroke-width="1.5" stroke-linecap="round"/>
  <line x1="130" y1="119" x2="113" y2="122" stroke="#81C784" stroke-width="1.5" stroke-linecap="round"/>
  <line x1="132" y1="124" x2="114" y2="124" stroke="#81C784" stroke-width="1.5" stroke-linecap="round"/>
  <!-- Нижние лапы -->
  <ellipse cx="72" cy="212" rx="22" ry="13" fill="#C8E6C9"/>
  <ellipse cx="144" cy="212" rx="22" ry="13" fill="#C8E6C9"/>
</svg>
